<?xml version="1.0" encoding="UTF-8"?>
<svg width="60px" height="60px" viewBox="0 0 60 60" version="1.1" xmlns="http://www.w3.org/2000/svg" xmlns:xlink="http://www.w3.org/1999/xlink">
    <!-- Generator: Sketch 46.2 (44496) - http://www.bohemiancoding.com/sketch -->
    <title>circle35</title>
    <desc>Created with Sketch.</desc>
    <defs></defs>
    <g id="Page-1" stroke="none" stroke-width="1" fill="none" fill-rule="evenodd">
        <g id="Artboard" transform="translate(-945.000000, -254.000000)" fill="#FF5EC0">
            <g id="circle35" transform="translate(975.000000, 284.000000) rotate(-90.000000) translate(-975.000000, -284.000000) translate(945.000000, 254.000000)">
                <path d="M0.000146103233,30 C4.87247871e-05,29.9685649 0,29.9371183 0,29.9056604 C0,13.3892202 13.4314575,0 30,0 C46.5685425,0 60,13.3892202 60,29.9056604 C60,29.9371183 59.9999513,29.9685649 59.9998539,30 L0.000146103233,30 Z" id="semicircle" opacity="0.25"></path>
                <path d="M0.000146103233,60 C4.87247871e-05,59.9685649 0,59.9371183 0,59.9056604 C0,43.3892202 13.4314575,30 30,30 C46.5685425,30 60,43.3892202 60,59.9056604 C60,59.9371183 59.9999513,59.9685649 59.9998539,60 L0.000146103233,60 Z" id="semicircle-copy" opacity="0.5" transform="translate(30.000000, 45.000000) scale(1, -1) translate(-30.000000, -45.000000) "></path>
                <path d="M15.0001461,45 C15.0000487,44.9685649 15,44.9371183 15,44.9056604 C15,28.3892202 28.4314575,15 45,15 C61.5685425,15 75,28.3892202 75,44.9056604 C75,44.9371183 74.9999513,44.9685649 74.9998539,45 L15.0001461,45 Z" id="semicircle-copy-5" opacity="0.75" transform="translate(45.000000, 30.000000) scale(1, -1) rotate(90.000000) translate(-45.000000, -30.000000) "></path>
            </g>
        </g>
    </g>
</svg>