<?xml version="1.0" encoding="UTF-8"?>
<svg width="60px" height="60px" viewBox="0 0 60 60" version="1.1" xmlns="http://www.w3.org/2000/svg" xmlns:xlink="http://www.w3.org/1999/xlink">
    <!-- Generator: Sketch 46.2 (44496) - http://www.bohemiancoding.com/sketch -->
    <title>circle38</title>
    <desc>Created with Sketch.</desc>
    <defs></defs>
    <g id="Page-1" stroke="none" stroke-width="1" fill="none" fill-rule="evenodd">
        <g id="Artboard" transform="translate(-629.000000, -592.000000)" fill="#FFFFFF">
            <g id="circle38" transform="translate(629.000000, 592.000000)">
                <path d="M45,30 L59.9998539,30 C59.9999513,29.9685649 60,29.9371183 60,29.9056604 C60,13.3892202 46.5685425,0 30,0 C13.4314575,0 0,13.3892202 0,29.9056604 C0,29.9371183 4.87247871e-05,29.9685649 0.000146103233,30 L15,30 C15,21.7157288 21.7157288,15 30,15 C38.2842712,15 45,21.7157288 45,30 Z" id="Combined-Shape" opacity="0.5"></path>
                <path d="M45,60 L59.9998539,60 C59.9999513,59.9685649 60,59.9371183 60,59.9056604 C60,43.3892202 46.5685425,30 30,30 C13.4314575,30 0,43.3892202 0,59.9056604 C0,59.9371183 4.87247871e-05,59.9685649 0.000146103233,60 L15,60 C15,51.7157288 21.7157288,45 30,45 C38.2842712,45 45,51.7157288 45,60 Z" id="Combined-Shape-Copy" opacity="0.5" transform="translate(30.000000, 45.000000) scale(1, -1) translate(-30.000000, -45.000000) "></path>
                <path d="M60,45 L74.9998539,45 C74.9999513,44.9685649 75,44.9371183 75,44.9056604 C75,28.3892202 61.5685425,15 45,15 C28.4314575,15 15,28.3892202 15,44.9056604 C15,44.9371183 15.0000487,44.9685649 15.0001461,45 L30,45 C30,36.7157288 36.7157288,30 45,30 C53.2842712,30 60,36.7157288 60,45 Z" id="Combined-Shape-Copy-3" opacity="0.75" transform="translate(45.000000, 30.000000) rotate(90.000000) translate(-45.000000, -30.000000) "></path>
                <path d="M45,60 L59.9998539,60 C59.9999513,59.9685649 60,59.9371183 60,59.9056604 C60,43.3892202 46.5685425,30 30,30 C13.4314575,30 0,43.3892202 0,59.9056604 C0,59.9371183 4.87247871e-05,59.9685649 0.000146103233,60 L15,60 C15,51.7157288 21.7157288,45 30,45 C38.2842712,45 45,51.7157288 45,60 Z" id="Combined-Shape-Copy-2" opacity="0.5" transform="translate(30.000000, 45.000000) scale(1, -1) translate(-30.000000, -45.000000) "></path>
            </g>
        </g>
    </g>
</svg>