<?xml version="1.0" encoding="UTF-8"?>
<svg width="60px" height="60px" viewBox="0 0 60 60" version="1.1" xmlns="http://www.w3.org/2000/svg" xmlns:xlink="http://www.w3.org/1999/xlink">
    <!-- Generator: Sketch 46.2 (44496) - http://www.bohemiancoding.com/sketch -->
    <title>circle 2</title>
    <desc>Created with Sketch.</desc>
    <defs></defs>
    <g id="Page-1" stroke="none" stroke-width="1" fill="none" fill-rule="evenodd">
        <g id="Desktop-HD" transform="translate(-1077.000000, -337.000000)">
            <g id="symbols" transform="translate(444.000000, 167.000000)">
                <g id="3rd-row" transform="translate(475.000000, 170.000000)">
                    <g id="circle-2" transform="translate(158.000000, 0.000000)">
                        <path d="M0.000143668179,30 C4.79127073e-05,29.9685649 0,29.9371183 0,29.9056604 C0,13.3892202 13.2075999,0 29.5,0 C45.7924001,0 59,13.3892202 59,29.9056604 C59,29.9371183 58.9999521,29.9685649 58.9998563,30 L0.000143668179,30 Z" id="semicircle-copy-3" fill="#FF9010"></path>
                        <path d="M0.000143668179,60 C4.79127073e-05,59.9685649 0,59.9371183 0,59.9056604 C0,43.3892202 13.2075999,30 29.5,30 C45.7924001,30 59,43.3892202 59,59.9056604 C59,59.9371183 58.9999521,59.9685649 58.9998563,60 L0.000143668179,60 Z" id="semicircle-copy-2" fill="#FFFFFF" opacity="0.5" transform="translate(29.500000, 45.000000) scale(1, -1) translate(-29.500000, -45.000000) "></path>
                        <path d="M15.0001437,45 C15.0000479,44.9685649 15,44.9371183 15,44.9056604 C15,28.3892202 28.2075999,15 44.5,15 C60.7924001,15 74,28.3892202 74,44.9056604 C74,44.9371183 73.9999521,44.9685649 73.9998563,45 L15.0001437,45 Z" id="semicircle-copy-4" fill="#FFFFFF" opacity="0.5" transform="translate(44.500000, 30.000000) scale(1, -1) rotate(90.000000) translate(-44.500000, -30.000000) "></path>
                    </g>
                </g>
            </g>
        </g>
    </g>
</svg>