<?xml version="1.0" encoding="UTF-8"?>
<svg width="60px" height="60px" viewBox="0 0 60 60" version="1.1" xmlns="http://www.w3.org/2000/svg" xmlns:xlink="http://www.w3.org/1999/xlink">
    <!-- Generator: Sketch 46.2 (44496) - http://www.bohemiancoding.com/sketch -->
    <title>circle4</title>
    <desc>Created with Sketch.</desc>
    <defs></defs>
    <g id="Page-1" stroke="none" stroke-width="1" fill="none" fill-rule="evenodd">
        <g id="Artboard" transform="translate(-233.000000, -169.000000)">
            <g id="circle4" transform="translate(233.000000, 169.000000)">
                <path d="M45,30 L59.9998539,30 C59.9999513,29.9685649 60,29.9371183 60,29.9056604 C60,13.3892202 46.5685425,0 30,0 C13.4314575,0 0,13.3892202 0,29.9056604 C0,29.9371183 4.87247871e-05,29.9685649 0.000146103233,30 L15,30 C15,21.7157288 21.7157288,15 30,15 C38.2842712,15 45,21.7157288 45,30 Z" id="Combined-Shape-Copy-10" fill="#FFFFFF"></path>
                <path d="M45,60 L59.9998539,60 C59.9999513,59.9685649 60,59.9371183 60,59.9056604 C60,43.3892202 46.5685425,30 30,30 C13.4314575,30 0,43.3892202 0,59.9056604 C0,59.9371183 4.87247871e-05,59.9685649 0.000146103233,60 L15,60 C15,51.7157288 21.7157288,45 30,45 C38.2842712,45 45,51.7157288 45,60 Z" id="Combined-Shape-Copy-9" fill="#FF5EC0" transform="translate(30.000000, 45.000000) scale(1, -1) translate(-30.000000, -45.000000) "></path>
            </g>
        </g>
    </g>
</svg>