<?xml version="1.0" encoding="UTF-8"?>
<svg width="60px" height="60px" viewBox="0 0 60 60" version="1.1" xmlns="http://www.w3.org/2000/svg" xmlns:xlink="http://www.w3.org/1999/xlink">
    <!-- Generator: Sketch 46.2 (44496) - http://www.bohemiancoding.com/sketch -->
    <title>circle14</title>
    <desc>Created with Sketch.</desc>
    <defs></defs>
    <g id="Page-1" stroke="none" stroke-width="1" fill="none" fill-rule="evenodd">
        <g id="Artboard" transform="translate(-154.000000, -509.000000)" fill="#08C8FF">
            <g id="circle14" transform="translate(184.000000, 539.000000) scale(-1, 1) translate(-184.000000, -539.000000) translate(154.000000, 509.000000)">
                <path d="M30,60 C13.4314575,60 0,46.5685425 0,30 C0,13.4314575 13.4314575,0 30,0 C46.5685425,0 60,13.4314575 60,30 C60,46.5685425 46.5685425,60 30,60 Z M30.5,39 C35.1944204,39 39,35.1944204 39,30.5 C39,25.8055796 35.1944204,22 30.5,22 C25.8055796,22 22,25.8055796 22,30.5 C22,35.1944204 25.8055796,39 30.5,39 Z" id="Combined-Shape"></path>
            </g>
        </g>
    </g>
</svg>